<svg width="42" height="42" viewBox="0 0 42 42" fill="none" xmlns="http://www.w3.org/2000/svg">
<g clip-path="url(#clip0_1017_8649)">
<path d="M21 0C9.43696 0 0 9.4377 0 21C0 32.563 9.4377 42 21 42C32.563 42 42 32.5623 42 21C42 9.43696 32.5623 0 21 0ZM14.77 3.53907C13.3336 5.37444 12.2969 7.64498 11.581 9.84375H6.20337C8.36481 6.98406 11.3347 4.76848 14.77 3.53907ZM4.63091 12.3039H10.8944C10.3461 14.6353 10.0225 17.1594 9.94481 19.7695H2.50277C2.67947 17.0865 3.42915 14.5578 4.63091 12.3039ZM2.50277 22.2305H9.94481C10.0215 24.8102 10.3388 27.3054 10.8755 29.6133H4.58752C3.41119 27.3808 2.67734 24.881 2.50277 22.2305ZM6.14078 32.0742H11.5543C12.2734 34.306 13.3196 36.6075 14.77 38.4609C11.3017 37.2197 8.3073 34.9738 6.14078 32.0742ZM19.7695 39.3286C17.0116 38.3938 15.1351 34.8193 14.1518 32.0742H19.7695V39.3286ZM19.7695 29.6133H13.4053C12.8296 27.3377 12.4885 24.8359 12.4067 22.2305H19.7695V29.6133ZM19.7695 19.7695H12.4067C12.4895 17.1326 12.8381 14.6022 13.4265 12.3047H19.7695V19.7695ZM19.7695 9.84375H14.1812C15.1655 7.12671 17.0334 3.59879 19.7695 2.67143V9.84375ZM35.7966 9.84375H30.419C29.7033 7.64548 28.6666 5.37477 27.23 3.53907C30.6653 4.76848 33.6352 6.98406 35.7966 9.84375ZM22.2305 2.67143C24.9669 3.59896 26.8347 7.12737 27.8188 9.84375H22.2305V2.67143ZM22.2305 12.3047H28.5735C29.1619 14.6022 29.5105 17.1326 29.5933 19.7695H22.2305V12.3047ZM22.2305 22.2296H29.5933C29.5115 24.8359 29.1704 27.3377 28.5947 29.6133H22.2305V22.2296ZM22.2305 39.3286V32.0734H27.8482C26.8656 34.8177 24.9891 38.3936 22.2305 39.3286ZM27.23 38.4609C28.6806 36.6073 29.7266 34.3056 30.4457 32.0734H35.8592C33.6927 34.9738 30.6983 37.2197 27.23 38.4609ZM37.4125 29.6133H31.1245C31.6613 27.3054 31.9786 24.8102 32.0553 22.2296H39.4973C39.3227 24.881 38.5888 27.3808 37.4125 29.6133ZM39.4972 19.7695H32.0552C31.9775 17.1594 31.6539 14.6353 31.1056 12.3047H37.3691C38.5708 14.5578 39.3205 17.0865 39.4972 19.7695Z" fill="white"/>
</g>
<defs>
<clipPath id="clip0_1017_8649">
<rect width="42" height="42" fill="white"/>
</clipPath>
</defs>
</svg>
